<?xml version="1.0" encoding="UTF-8"?>
<svg id="a" data-name="Layer 1" xmlns="http://www.w3.org/2000/svg" width="6in" height="3in" viewBox="0 0 432 216">
  <rect x="222.974" y="65.705" width="40.793" height="46.653" fill="none" stroke-width="0"/>
  <rect x="223.096" y="141.705" width="38.735" height="19.278" fill="none" stroke-width="0"/>
  <rect x="295.785" y="141.705" width="41.156" height="46.653" fill="none" stroke-width="0"/>
  <rect x="223.096" y="168.405" width="40.43" height="19.953" fill="none" stroke-width="0"/>
  <path d="m212.685,57.705v62.653h49.387c7.869,0,11.742-4.819,11.742-9.735v-42.411c0-6.555-2.422-10.507-9.805-10.507h-51.325Zm10.289,8h40.793v46.653h-40.793v-46.653Z" fill="#fff" stroke-width="0"/>
  <polygon points="341.868 112.358 296.838 112.358 296.838 92.405 326.494 92.405 326.494 84.791 296.838 84.791 296.838 65.705 341.868 65.705 341.868 57.705 286.428 57.705 286.428 120.358 341.868 120.358 341.868 112.358" fill="#fff" stroke-width="0"/>
  <path d="m363.198,68.018c7.99,10.024,16.584,20.82,19.248,24.194l22.393,28.146h14.525v-62.653h-9.926v53.979c-7.988-10.024-17.066-21.398-18.762-23.616l-24.209-30.362h-13.195v62.653h9.926v-52.34Z" fill="#fff" stroke-width="0"/>
  <path d="m269.215,164.26c1.814-1.35,2.662-3.277,2.662-5.688v-15.519c0-6.361-3.389-9.35-9.805-9.35h-49.387v62.653h49.508c7.869,0,11.742-4.819,11.742-9.735v-14.748c0-3.951-1.574-6.361-4.721-7.614Zm-46.12-22.556h38.735v19.278h-38.735v-19.278Zm40.43,46.653h-40.43v-19.953h40.43v19.953Z" fill="#fff" stroke-width="0"/>
  <path d="m337.184,133.705h-41.156c-5.811,0-10.289,2.12-10.289,7.325v46.364c0,6.361,5.447,8.964,11.742,8.964h37.766c7.869,0,11.863-4.819,11.863-9.735v-42.411c0-6.555-2.664-10.507-9.926-10.507Zm-.242,54.653h-41.156v-46.653h41.156v46.653Z" fill="#fff" stroke-width="0"/>
  <polygon points="356.178 133.705 356.178 141.705 383.897 141.705 383.897 196.358 394.428 196.358 394.428 141.705 422.149 141.705 422.149 133.705 356.178 133.705" fill="#fff" stroke-width="0"/>
  <path d="m121.482,114.887c1.82,1.82,5.066,2.148,7.214.727l1.889-1.249c2.708-1.791,3.451-5.438,1.66-8.146h0c-2.053-1.027-2.561-3.335-1.089-5.097.925-1.107,1.766-2.271,2.519-3.48,1.291-2.073,3.747-3.111,6.145-2.65l.067.013c3.163.608,6.227-1.442,6.87-4.599l.452-2.219c.323-1.586-.025-3.152-.85-4.405-1.141-1.732-1.228-3.951-.103-5.693l12.965-23.718c-12.28,5.52-23.687,10.646-27.889,12.532-.544.244-1.082-.348-.79-.869l2.903-5.177c.271-.484.2-1.017-.075-1.404s-.755-.63-1.301-.532l-9.095,1.619c-.148.026-.284.001-.396-.058-.337-.178-.471-.664-.153-.986l.394-.399-39.199,14.787c-5.067,1.911-7.987,7.208-6.944,12.522.007.038.015.075.022.112l.342,1.773c.555,2.369-.456,4.829-2.485,6.171-2.913,1.457-3.826,4.871-2.03,7.587l1.619,2.448c1.567,2.37,4.929,3.269,7.47,1.998l.677-.338c2.088-1.044,5.341-.773,7.258.561.413.288.832.564,1.257.83,2.095,1.311,3.187,3.758,2.712,6.183l-.009.046c-.621,3.169,1.43,6.246,4.595,6.891l2.299.469c3.17.646,6.255-1.427,6.855-4.606.448-2.372,2.328-4.235,4.715-4.598.433-.066.865-.141,1.296-.225,2.327-.455,5.607.57,7.284,2.246l.933.933Z" fill="#f47c5c" stroke-width="0"/>
  <path d="m70.6,63.708c-1.409-11.654,5.594-17.25,5.711-28.555.147-14.232-10.125-24.681-21.971-25.849l-10.859,4.014c-.615.227-.844.979-.461,1.511l4.127,5.722c.478.663-.005,1.587-.822,1.572-2.806-.053-7.826,0-9.933.027-.479.006-.811.48-.654.933l1.711,4.925c2.036,1.367,3.901,2.687,5.482,3.906,3.233,2.493,11.934,5.883,6.923,23.754-4.692,16.731,21.745,20.258,29.089,21.193,0,0-7.35-4.937-8.342-13.151Z" fill="#f47c5c" stroke-width="0"/>
  <path d="m36.392,22.149c2.107-.026,7.127-.08,9.933-.027.817.015,1.3-.909.822-1.572l-4.127-5.722c-.384-.532-.155-1.283.461-1.511l10.859-4.014c-.732-.072-1.469-.113-2.21-.113H11.326c-1.521,0-2.044,2.023-.714,2.761,6.575,3.648,18.248,10.284,26.838,16.054l-1.711-4.925c-.157-.453.175-.927.654-.933Z" fill="#fff" stroke-width="0"/>
  <path d="m64.577,133.82c-12.992,0-23.562,10.57-23.562,23.562s10.57,23.562,23.562,23.562,23.561-10.57,23.561-23.562-10.569-23.562-23.561-23.562Zm0,34.414c-5.994,0-10.853-4.859-10.853-10.853s4.859-10.853,10.853-10.853,10.853,4.859,10.853,10.853-4.859,10.853-10.853,10.853Z" fill="#fff" stroke-width="0"/>
  <path d="m108.838,148.063h-.012c-2.117.167-4.098-1.125-4.737-3.15-.285-.904-.602-1.798-.948-2.68-.776-1.976-.047-4.226,1.703-5.428l.01-.007c2.101-1.443,2.635-4.316,1.192-6.417l-1.38-2.009c-1.443-2.101-4.316-2.635-6.417-1.192h0c-1.751,1.203-4.113,1.073-5.68-.362-.697-.638-1.418-1.255-2.164-1.849-1.661-1.322-2.153-3.637-1.238-5.552h0c1.098-2.3.124-5.055-2.176-6.153l-2.199-1.05c-2.3-1.098-5.055-.124-6.153,2.176h0c-.915,1.916-3.024,2.988-5.096,2.528-.931-.207-1.864-.38-2.798-.521-2.101-.316-3.687-2.071-3.853-4.189h0c-.199-2.541-2.42-4.44-4.961-4.241l-2.43.19c-2.541.199-4.44,2.42-4.241,4.961v.012c.167,2.117-1.125,4.098-3.149,4.737-.904.285-1.798.602-2.68.948-1.976.776-4.226.047-5.428-1.703l-.007-.01c-1.443-2.101-4.316-2.635-6.417-1.192l-2.009,1.38c-2.101,1.443-2.635,4.316-1.192,6.417,1.203,1.751,1.072,4.113-.362,5.68-.638.697-1.255,1.419-1.849,2.164-1.322,1.661-3.637,2.153-5.552,1.238h0c-2.3-1.098-5.055-.124-6.153,2.176l-1.05,2.199c-1.098,2.3-.124,5.055,2.176,6.153h0c1.915.914,2.988,3.024,2.528,5.096-.207.931-.38,1.864-.521,2.798-.316,2.101-2.071,3.687-4.189,3.853h0c-2.541.199-4.439,2.42-4.24,4.961l.288,3.68c.199,2.541,2.322,3.19,4.863,2.99h.012c2.117-.167,4.098,1.125,4.737,3.15.285.904.602,1.798.948,2.68.776,1.976.047,4.226-1.703,5.428l-.01.007c-2.101,1.443-2.635,4.316-1.192,6.417l1.38,2.009c1.443,2.101,4.316,2.635,6.417,1.192,1.751-1.203,4.113-1.072,5.68.362.697.638,1.418,1.255,2.164,1.849,1.661,1.322,2.153,3.637,1.239,5.552h0c-1.098,2.3-.124,5.055,2.176,6.153l2.199,1.05c2.3,1.098,5.055.124,6.153-2.176h0c.915-1.916,3.024-2.988,5.096-2.528.931.207,1.864.38,2.798.521,2.101.316,3.687,2.071,3.853,4.189h0c.199,2.541,2.42,4.44,4.961,4.241l2.43-.19c2.541-.199,4.44-2.42,4.24-4.961v-.012c-.167-2.117,1.125-4.098,3.15-4.737.904-.285,1.798-.602,2.68-.948,1.976-.776,4.227-.047,5.428,1.703l.007.01c1.443,2.101,4.316,2.635,6.417,1.192l2.009-1.38c2.101-1.443,2.635-4.316,1.192-6.417h0c-1.203-1.751-1.072-4.113.362-5.68.638-.697,1.255-1.418,1.849-2.164,1.322-1.661,3.637-2.153,5.552-1.238,2.3,1.098,5.055.124,6.153-2.176l1.05-2.199c1.098-2.3.124-5.055-2.176-6.153h0c-1.915-.915-2.988-3.024-2.528-5.096.207-.931.38-1.864.521-2.798.316-2.101,2.071-3.687,4.189-3.853h0c2.541-.199,4.439-2.42,4.24-4.961l-.19-2.43c-.199-2.541-2.42-4.44-4.961-4.241Zm-44.261,35.595c-14.489,0-26.277-11.787-26.277-26.276s11.788-26.277,26.277-26.277,26.277,11.788,26.277,26.277-11.788,26.276-26.277,26.276Z" fill="#fff" stroke-width="0"/>
  <path d="m165,171.902h0c-3.045-.106-5.771-1.865-7.182-4.565-.049-.095-.1-.189-.151-.283-1.459-2.673-1.381-5.92.232-8.503.609-.974.312-2.258-.662-2.867l-4.148-2.591c-.974-.609-2.258-.312-2.867.662h0c-1.613,2.583-4.497,4.078-7.54,3.939-.101-.005-.203-.008-.304-.011-3.052-.087-5.835-1.757-7.269-4.452h0c-.54-1.015-1.799-1.4-2.814-.86l-4.318,2.297c-1.014.54-1.399,1.799-.86,2.814l.013.024c1.421,2.671,1.269,5.893-.363,8.44-.035.055-.07.11-.105.166-.035.055-.069.111-.103.167-1.573,2.585-4.402,4.134-7.426,4.029h-.027c-1.148-.041-2.111.858-2.151,2.006l-.17,4.888c-.04,1.148.859,2.112,2.007,2.151h0c3.045.106,5.771,1.865,7.182,4.565.049.095.1.189.151.282,1.459,2.673,1.381,5.921-.232,8.503h0c-.609.975-.312,2.258.662,2.867l4.148,2.591c.974.609,2.258.312,2.867-.662,1.613-2.583,4.497-4.078,7.54-3.939.101.005.203.008.304.011,3.052.087,5.835,1.757,7.269,4.452h0c.54,1.015,1.799,1.4,2.814.86l4.318-2.297c1.014-.54,1.399-1.799.86-2.814l-.013-.024c-1.421-2.671-1.27-5.894.363-8.441.035-.055.07-.11.105-.166.035-.055.069-.111.103-.167,1.573-2.584,4.402-4.134,7.426-4.029h.028c1.148.041,2.111-.858,2.151-2.006l.17-4.888c.04-1.148-.859-2.111-2.007-2.151Zm-23.058,11.183c-4.118.025-7.478-3.293-7.503-7.411-.025-4.118,3.293-7.478,7.411-7.503,4.118-.025,7.478,3.293,7.503,7.411.026,4.118-3.292,7.478-7.411,7.503Z" fill="#fff" stroke-width="0"/>
  <path d="m193.173,118.508h-.003c-2.018.061-3.873-1.125-4.631-2.996-.244-.604-.513-1.199-.805-1.786-.898-1.805-.55-3.981.832-5.449h0c1.843-1.959,1.75-5.041-.209-6.884l-1.366-1.286c-1.959-1.843-5.041-1.75-6.884.209h0c-1.382,1.468-3.532,1.947-5.388,1.161-.604-.256-1.215-.487-1.832-.695-1.914-.643-3.211-2.423-3.272-4.44v-.003c-.082-2.688-2.327-4.802-5.016-4.72l-1.875.057c-2.688.082-4.802,2.327-4.72,5.016v.003c.061,2.018-1.125,3.873-2.996,4.631-.604.245-1.199.513-1.786.805-1.805.898-3.98.55-5.448-.832h0c-1.959-1.843-5.041-1.75-6.884.209l-1.286,1.366c-1.843,1.959-1.75,5.041.209,6.884h0c1.468,1.382,1.947,3.532,1.161,5.388-.256.604-.487,1.215-.695,1.832-.643,1.914-2.423,3.211-4.441,3.272h-.003c-2.689.082-4.802,2.327-4.72,5.016l.057,1.875c.082,2.688,2.327,4.802,5.016,4.72h.003c2.018-.061,3.873,1.125,4.631,2.996.245.604.513,1.199.805,1.786.898,1.805.55,3.98-.832,5.449h0c-1.843,1.959-1.75,5.041.209,6.884l1.366,1.286c1.959,1.843,5.041,1.75,6.884-.209h0c1.381-1.468,3.532-1.947,5.388-1.161.604.256,1.215.487,1.832.695,1.913.643,3.211,2.423,3.272,4.44v.003c.082,2.689,2.327,4.802,5.016,4.72l1.875-.057c2.688-.082,4.802-2.327,4.72-5.016v-.003c-.061-2.018,1.125-3.873,2.996-4.631.604-.245,1.2-.513,1.787-.805,1.805-.898,3.98-.55,5.448.832,1.959,1.843,5.041,1.75,6.884-.209l1.286-1.366c1.843-1.959,1.75-5.041-.209-6.884h0c-1.468-1.382-1.947-3.532-1.161-5.388.256-.604.487-1.215.695-1.832.643-1.914,2.423-3.211,4.441-3.272h.003c2.688-.082,4.802-2.327,4.72-5.016l-.057-1.875c-.082-2.689-2.327-4.802-5.016-4.72Zm-28.404,21.11c-7.971.049-14.473-6.373-14.523-14.344-.049-7.971,6.373-14.473,14.344-14.523s14.473,6.373,14.522,14.344c.049,7.971-6.373,14.473-14.344,14.523Z" fill="#fff" stroke-width="0"/>
  <path d="m153.412,26.833c-.514-.161-.94-.549-1.141-1.07l-2.819-7.306,2.819,7.306c.201.521.627.908,1.141,1.07Z" fill="#fff" stroke-width="0"/>
  <path d="m122.576,60.482c.112.059.248.085.396.058l9.095-1.619c.546-.097,1.026.145,1.301.532s.346.92.075,1.404l-2.903,5.177c-.292.52.246,1.113.79.869,4.202-1.885,15.609-7.011,27.889-12.532,15.101-6.788,31.525-14.172,37.511-16.864.333-.15.396-.508.264-.77l-4.821.662-52.904,6.612-15.348,1.94c-.632.08-.746.947-.156,1.187l5.918,2.413c.867.353,1.097,1.474.439,2.14l-7.306,7.404-.394.399c-.318.322-.184.808.153.986Z" fill="#fff" stroke-width="0"/>
  <path d="m192.174,37.4l4.821-.662c-.087-.171-.255-.302-.494-.304l-22.494-.154c-.411-.003-.801-.129-1.127-.349s-.589-.534-.746-.914l-6.849-16.587c-.07-.17-.227-.253-.382-.249-.155.004-.307.094-.369.267l-2.59,7.271c-.255.717-.934,1.196-1.695,1.196h-6.297c-.186,0-.367-.029-.539-.082-.514-.161-.94-.549-1.141-1.07l-2.819-7.306c-.134-.346-.625-.342-.753.005l-9.429,25.55,52.904-6.612Zm-27.637-5.194c1.117,0,2.023.906,2.023,2.023s-.906,2.023-2.023,2.023-2.024-.906-2.024-2.023.906-2.023,2.024-2.023Zm-5.291,0c1.118,0,2.024.906,2.024,2.023s-.906,2.023-2.024,2.023-2.023-.906-2.023-2.023.906-2.023,2.023-2.023Z" fill="#f47c5c" stroke-width="0"/>
</svg>